<svg width="1300" height="820" xmlns="http://www.w3.org/2000/svg">
  <defs>
    <linearGradient id="layerGrad" x1="0%" y1="0%" x2="0%" y2="100%">
      <stop offset="0%" style="stop-color:#fbbf24;stop-opacity:1" />
      <stop offset="100%" style="stop-color:#f59e0b;stop-opacity:1" />
    </linearGradient>
    
    <linearGradient id="matrixGrad" x1="0%" y1="0%" x2="100%" y2="100%">
      <stop offset="0%" style="stop-color:#fbbf24;stop-opacity:0.8" />
      <stop offset="50%" style="stop-color:#f97316;stop-opacity:1" />
      <stop offset="100%" style="stop-color:#ea580c;stop-opacity:0.8" />
    </linearGradient>
    
    <filter id="shadow">
      <feDropShadow dx="0" dy="2" stdDeviation="3" flood-opacity="0.15"/>
    </filter>
    
    <filter id="softGlow">
      <feGaussianBlur stdDeviation="2" result="coloredBlur"/>
      <feMerge>
        <feMergeNode in="coloredBlur"/>
        <feMergeNode in="SourceGraphic"/>
      </feMerge>
    </filter>
    
    <marker id="arrow" viewBox="0 0 10 10" refX="10" refY="5" markerWidth="6" markerHeight="6" orient="auto">
      <path d="M 0 0 L 10 5 L 0 10 z" fill="#92400e" />
    </marker>
  </defs>
  
  <style>
    @import url('https://fonts.googleapis.com/css2?family=Inter:wght@400;500;600&amp;family=JetBrains+Mono:wght@400;500&amp;display=swap');
    
    .title { font-family: 'Inter', sans-serif; font-size: 22px; font-weight: 600; fill: #451a03; }
    .label { font-family: 'Inter', sans-serif; font-size: 14px; font-weight: 500; fill: #78350f; }
    .code { font-family: 'JetBrains Mono', monospace; font-size: 14px; fill: #451a03; }
    .token { font-family: 'JetBrains Mono', monospace; font-size: 13px; }
    .decoded { font-family: 'JetBrains Mono', monospace; font-size: 11px; fill: #92400e; }
    .index { font-family: 'JetBrains Mono', monospace; font-size: 10px; fill: #b45309; }
    
    .normal { fill: #451a03; }
  </style>
  
  <!-- Background -->
  <rect width="1300" height="820" fill="#fef3c7" />

  <!-- Decoded Activations -->
  <g transform="translate(50, 10)">
    
    <rect x="0" y="20" width="1200" height="650" rx="8" fill="#fffbeb" stroke="#f59e0b" stroke-width="1" filter="url(#shadow)"/>
    <text x="600" y="55" text-anchor="middle" class="label"> <tspan font-weight="bold"  font-family="JetBrains Mono" font-size="16" fill="#991b1b">Bottleneck text (autoregressively decoded activations from layer 20 of Gemma-2-2B, 26 layers)</tspan></text>
    
    <!-- Column 1 -->
    <g transform="translate(20, 90)">
      <g transform="translate(0, 0)"><g><rect x="0" y="-12" width="25" height="16" rx="4" fill="#fed7aa" stroke="#f59e0b" stroke-width="1"/><text x="12.5" y="0" text-anchor="middle" class="index">65</text></g><text x="35" y="0" class="token normal">\n\n</text><text x="120" y="0" class="decoded">→ france Elle famille We ….. Elle Tu Madame</text></g>
      <g transform="translate(0, 20)"><g><rect x="0" y="-12" width="25" height="16" rx="4" fill="#fed7aa" stroke="#f59e0b" stroke-width="1"/><text x="12.5" y="0" text-anchor="middle" class="index">66</text></g><text x="35" y="0" class="token normal">Tu</text><text x="120" y="0" class="decoded">→ Tu Tu Tu parle étu manger a danseTu</text></g>
      <g transform="translate(0, 40)"><g><rect x="0" y="-12" width="25" height="16" rx="4" fill="#fed7aa" stroke="#f59e0b" stroke-width="1"/><text x="12.5" y="0" text-anchor="middle" class="index">67</text></g><text x="35" y="0" class="token normal">as</text><text x="120" y="0" class="decoded">→ has Vous France Have fille devoirs voiture bien as</text></g>
      <g transform="translate(0, 60)"><g><rect x="0" y="-12" width="25" height="16" rx="4" fill="#fed7aa" stroke="#f59e0b" stroke-width="1"/><text x="12.5" y="0" text-anchor="middle" class="index">68</text></g><text x="35" y="0" class="token normal">un</text><text x="120" y="0" class="decoded">→ A avoir Have français homework chocolat téléphone chien un</text></g>
      <g transform="translate(0, 80)"><g><rect x="0" y="-12" width="25" height="16" rx="4" fill="#fed7aa" stroke="#f59e0b" stroke-width="1"/><text x="12.5" y="0" text-anchor="middle" class="index">69</text></g><text x="35" y="0" class="token normal">chien</text><text x="120" y="0" class="decoded">→ Dog You avez français chien? petit chien</text></g>
      <g transform="translate(0, 100)"><g><rect x="0" y="-12" width="25" height="16" rx="4" fill="#fed7aa" stroke="#f59e0b" stroke-width="1"/><text x="12.5" y="0" text-anchor="middle" class="index">70</text></g><text x="35" y="0" class="token normal">?</text><text x="120" y="0" class="decoded">→ ? FRENCH verbs Have Girl YES – |?</text></g>
      <g transform="translate(0, 120)"><g><rect x="0" y="-12" width="25" height="16" rx="4" fill="#fed7aa" stroke="#f59e0b" stroke-width="1"/><text x="12.5" y="0" text-anchor="middle" class="index">71</text></g><text x="35" y="0" class="token normal">=</text><text x="120" y="0" class="decoded">→ =" korean question do YOU Do YOU Have =</text></g>
      <g transform="translate(0, 140)"><g><rect x="0" y="-12" width="25" height="16" rx="4" fill="#fed7aa" stroke="#f59e0b" stroke-width="1"/><text x="12.5" y="0" text-anchor="middle" class="index">72</text></g><text x="35" y="0" class="token normal">Do</text><text x="120" y="0" class="decoded">→ Do spanish girl noun you HAVE you, Do</text></g>
      <g transform="translate(0, 160)"><g><rect x="0" y="-12" width="25" height="16" rx="4" fill="#fed7aa" stroke="#f59e0b" stroke-width="1"/><text x="12.5" y="0" text-anchor="middle" class="index">73</text></g><text x="35" y="0" class="token normal">you</text><text x="120" y="0" class="decoded">→ you does Portuguese dog HAVE dog HAVE cat you</text></g>
      <g transform="translate(0, 180)"><g><rect x="0" y="-12" width="25" height="16" rx="4" fill="#fed7aa" stroke="#f59e0b" stroke-width="1"/><text x="12.5" y="0" text-anchor="middle" class="index">74</text></g><text x="35" y="0" class="token normal">have</text><text x="120" y="0" class="decoded">→ have portug DOES dog dog DOG a dog have</text></g>
      <g transform="translate(0, 200)"><g><rect x="0" y="-12" width="25" height="16" rx="4" fill="#fed7aa" stroke="#f59e0b" stroke-width="1"/><text x="12.5" y="0" text-anchor="middle" class="index">75</text></g><text x="35" y="0" class="token normal">a</text><text x="120" y="0" class="decoded">→ a having portug DOG MEAN dog DOG dog a</text></g>
      <g transform="translate(0, 220)"><g><rect x="0" y="-12" width="25" height="16" rx="4" fill="#fed7aa" stroke="#f59e0b" stroke-width="1"/><text x="12.5" y="0" text-anchor="middle" class="index">76</text></g><text x="35" y="0" class="token normal">dog</text><text x="120" y="0" class="decoded">→ dog Have SPANISH? PERSON?? DOG dog</text></g>
      <g transform="translate(0, 240)"><g><rect x="0" y="-12" width="25" height="16" rx="4" fill="#fed7aa" stroke="#f59e0b" stroke-width="1"/><text x="12.5" y="0" text-anchor="middle" class="index">77</text></g><text x="35" y="0" class="token normal">?</text><text x="120" y="0" class="decoded">→ 5 french verbs WhoASK OTHERS?</text></g>
      <g transform="translate(0, 260)"><g><rect x="0" y="-12" width="25" height="16" rx="4" fill="#fed7aa" stroke="#f59e0b" stroke-width="1"/><text x="12.5" y="0" text-anchor="middle" class="index">78</text></g><text x="35" y="0" class="token normal">\n\n</text><text x="120" y="0" class="decoded">→ france Elles verbs maman ….. Vous Juliette Abbiamo</text></g>
      <g transform="translate(0, 280)"><g><rect x="0" y="-12" width="25" height="16" rx="4" fill="#fed7aa" stroke="#f59e0b" stroke-width="1"/><text x="12.5" y="0" text-anchor="middle" class="index">79</text></g><text x="35" y="0" class="token normal">Les</text><text x="120" y="0" class="decoded">→ The Les français Homework nuages girls apples voitureLes</text></g>
      <g transform="translate(0, 300)"><g><rect x="0" y="-12" width="25" height="16" rx="4" fill="#fed7aa" stroke="#f59e0b" stroke-width="1"/><text x="12.5" y="0" text-anchor="middle" class="index">80</text></g><text x="35" y="0" class="token normal">enfants</text><text x="120" y="0" class="decoded">→ enfants Les français dormir Jardin joue calcio jouent enfants</text></g>
      <g transform="translate(0, 320)"><g><rect x="0" y="-12" width="25" height="16" rx="4" fill="#fed7aa" stroke="#f59e0b" stroke-width="1"/><text x="12.5" y="0" text-anchor="middle" class="index">81</text></g><text x="35" y="0" class="token normal">jouent</text><text x="120" y="0" class="decoded">→ jouent enfants Playing france quartier football à dehors jouent</text></g>
      <g transform="translate(0, 340)"><g><rect x="0" y="-12" width="25" height="16" rx="4" fill="#fed7aa" stroke="#f59e0b" stroke-width="1"/><text x="12.5" y="0" text-anchor="middle" class="index">82</text></g><text x="35" y="0" class="token normal">dehors</text><text x="120" y="0" class="decoded">→ dehors enfants OUTSIDE Ville jouer. aujourd dehors</text></g>
      <g transform="translate(0, 360)"><g><rect x="0" y="-12" width="25" height="16" rx="4" fill="#fed7aa" stroke="#f59e0b" stroke-width="1"/><text x="12.5" y="0" text-anchor="middle" class="index">83</text></g><text x="35" y="0" class="token normal">.</text><text x="120" y="0" class="decoded">→ 5 CHILDREN nouns PLAY = CHILDREN | THE.</text></g>
      <g transform="translate(0, 380)"><g><rect x="0" y="-12" width="25" height="16" rx="4" fill="#fed7aa" stroke="#f59e0b" stroke-width="1"/><text x="12.5" y="0" text-anchor="middle" class="index">84</text></g><text x="35" y="0" class="token normal">=</text><text x="120" y="0" class="decoded">→ = italian means children PLAY children CHILDREN The =</text></g>
      <g transform="translate(0, 400)"><g><rect x="0" y="-12" width="25" height="16" rx="4" fill="#fed7aa" stroke="#f59e0b" stroke-width="1"/><text x="12.5" y="0" text-anchor="middle" class="index">85</text></g><text x="35" y="0" class="token normal">The</text><text x="120" y="0" class="decoded">→ the french CHILDREN happiness CHILDREN children CHILDREN kids The</text></g>
      <g transform="translate(0, 420)"><g><rect x="0" y="-12" width="25" height="16" rx="4" fill="#fed7aa" stroke="#f59e0b" stroke-width="1"/><text x="12.5" y="0" text-anchor="middle" class="index">86</text></g><text x="35" y="0" class="token normal">children</text><text x="120" y="0" class="decoded">→ children german where playground PLAYING play play PLAY children</text></g>
      <g transform="translate(0, 440)"><g><rect x="0" y="-12" width="25" height="16" rx="4" fill="#fed7aa" stroke="#f59e0b" stroke-width="1"/><text x="12.5" y="0" text-anchor="middle" class="index">87</text></g><text x="35" y="0" class="token normal">play</text><text x="120" y="0" class="decoded">→ play portug children MEANS outdoor OUTSIDE outside OUTSIDE play</text></g>
      <g transform="translate(0, 460)"><g><rect x="0" y="-12" width="25" height="16" rx="4" fill="#fed7aa" stroke="#f59e0b" stroke-width="1"/><text x="12.5" y="0" text-anchor="middle" class="index">88</text></g><text x="35" y="0" class="token normal">outside</text><text x="120" y="0" class="decoded">→ outside CHILDREN WHERE PLAY.OUT. outside</text></g>
      <g transform="translate(0, 480)"><g><rect x="0" y="-12" width="25" height="16" rx="4" fill="#fed7aa" stroke="#f59e0b" stroke-width="1"/><text x="12.5" y="0" text-anchor="middle" class="index">89</text></g><text x="35" y="0" class="token normal">.</text><text x="120" y="0" class="decoded">→ 5 childrens nounsWHERE THREE BOSTON.</text></g>
      <g transform="translate(0, 500)"><g><rect x="0" y="-12" width="25" height="16" rx="4" fill="#fed7aa" stroke="#f59e0b" stroke-width="1"/><text x="12.5" y="0" text-anchor="middle" class="index">90</text></g><text x="35" y="0" class="token normal">\n\n</text><text x="120" y="0" class="decoded">→ france Ils maison Noun ….. Vous Kate Elle</text></g>
      <g transform="translate(0, 520)"><g><rect x="0" y="-12" width="25" height="16" rx="4" fill="#fed7aa" stroke="#f59e0b" stroke-width="1"/><text x="12.5" y="0" text-anchor="middle" class="index">91</text></g><text x="35" y="0" class="token normal">Je</text><text x="120" y="0" class="decoded">→ Je Je français I étudier manger dormir lesJe</text></g>
      <g transform="translate(0, 540)"><g><rect x="0" y="-12" width="25" height="16" rx="4" fill="#fed7aa" stroke="#f59e0b" stroke-width="1"/><text x="12.5" y="0" text-anchor="middle" class="index">92</text></g><text x="35" y="0" class="token normal">mange</text><text x="120" y="0" class="decoded">→ mange eat Je France lunch pomme une des mange</text></g>
    </g>

    <!-- Column 2 -->
    <g transform="translate(620, 90)">
      <g transform="translate(0, 0)"><g><rect x="0" y="-12" width="25" height="16" rx="4" fill="#fed7aa" stroke="#f59e0b" stroke-width="1"/><text x="12.5" y="0" text-anchor="middle" class="index">93</text></g><text x="35" y="0" class="token normal">du</text><text x="120" y="0" class="decoded">→ du Eat français Eating croissant pizza poisson sucre du</text></g>
      <g transform="translate(0, 20)"><g><rect x="0" y="-12" width="25" height="16" rx="4" fill="#fed7aa" stroke="#f59e0b" stroke-width="1"/><text x="12.5" y="0" text-anchor="middle" class="index">94</text></g><text x="35" y="0" class="token normal">pain</text><text x="120" y="0" class="decoded">→ Pain bread France eat baguette croissant domani pain</text></g>
      <g transform="translate(0, 40)"><g><rect x="0" y="-12" width="25" height="16" rx="4" fill="#fed7aa" stroke="#f59e0b" stroke-width="1"/><text x="12.5" y="0" text-anchor="middle" class="index">95</text></g><text x="35" y="0" class="token normal">.</text><text x="120" y="0" class="decoded">→ 5 FRANCE eat WORD = MY - FOOD.</text></g>
      <g transform="translate(0, 60)"><g><rect x="0" y="-12" width="25" height="16" rx="4" fill="#fed7aa" stroke="#f59e0b" stroke-width="1"/><text x="12.5" y="0" text-anchor="middle" class="index">96</text></g><text x="35" y="0" class="token normal">=</text><text x="120" y="0" class="decoded">→ = italian nouns eat I I EAT I =</text></g>
      <g transform="translate(0, 80)"><g><rect x="0" y="-12" width="25" height="16" rx="4" fill="#fed7aa" stroke="#f59e0b" stroke-width="1"/><text x="12.5" y="0" text-anchor="middle" class="index">97</text></g><text x="35" y="0" class="token normal">I</text><text x="120" y="0" class="decoded">→ i german bread eat eat BREAD eat FOOD I</text></g>
      <g transform="translate(0, 100)"><g><rect x="0" y="-12" width="25" height="16" rx="4" fill="#fed7aa" stroke="#f59e0b" stroke-width="1"/><text x="12.5" y="0" text-anchor="middle" class="index">98</text></g><text x="35" y="0" class="token normal">eat</text><text x="120" y="0" class="decoded">→ eat french I bread knowledge BREAD food BREAD eat</text></g>
      <g transform="translate(0, 120)"><g><rect x="0" y="-12" width="25" height="16" rx="4" fill="#fed7aa" stroke="#f59e0b" stroke-width="1"/><text x="12.5" y="0" text-anchor="middle" class="index">99</text></g><text x="35" y="0" class="token normal">bread</text><text x="120" y="0" class="decoded">→ Bread understood ITAL.FOOD. BREAD bread</text></g>
      <g transform="translate(0, 140)"><g><rect x="0" y="-12" width="25" height="16" rx="4" fill="#fed7aa" stroke="#f59e0b" stroke-width="1"/><text x="12.5" y="0" text-anchor="middle" class="index">100</text></g><text x="35" y="0" class="token normal">.</text><text x="120" y="0" class="decoded">→ 5 french verbsMY LE |.</text></g>
      <g transform="translate(0, 160)"><g><rect x="0" y="-12" width="25" height="16" rx="4" fill="#fed7aa" stroke="#f59e0b" stroke-width="1"/><text x="12.5" y="0" text-anchor="middle" class="index">101</text></g><text x="35" y="0" class="token normal">\n\n</text><text x="120" y="0" class="decoded">→ france Verbs maman ….. Vous Pierre Elle …..</text></g>
      <g transform="translate(0, 180)"><g><rect x="0" y="-12" width="25" height="16" rx="4" fill="#fed7aa" stroke="#f59e0b" stroke-width="1"/><text x="12.5" y="0" text-anchor="middle" class="index">102</text></g><text x="35" y="0" class="token normal">Ma</text><text x="120" y="0" class="decoded">→ Ma My français homework soeur maman voiture friendMa</text></g>
      <g transform="translate(0, 200)"><g><rect x="0" y="-12" width="25" height="16" rx="4" fill="#fed7aa" stroke="#f59e0b" stroke-width="1"/><text x="12.5" y="0" text-anchor="middle" class="index">103</text></g><text x="35" y="0" class="token normal">maison</text><text x="120" y="0" class="decoded">→ Maison My France house est est petit est maison</text></g>
      <g transform="translate(0, 220)"><g><rect x="0" y="-12" width="25" height="16" rx="4" fill="#fed7aa" stroke="#f59e0b" stroke-width="1"/><text x="12.5" y="0" text-anchor="middle" class="index">104</text></g><text x="35" y="0" class="token normal">est</text><text x="120" y="0" class="decoded">→ is house My France appartement Grande jolie petite est</text></g>
      <g transform="translate(0, 240)"><g><rect x="0" y="-12" width="25" height="16" rx="4" fill="#fed7aa" stroke="#f59e0b" stroke-width="1"/><text x="12.5" y="0" text-anchor="middle" class="index">105</text></g><text x="35" y="0" class="token normal">grande</text><text x="120" y="0" class="decoded">→ Grande est house SMALL. Maison je grande</text></g>
      <g transform="translate(0, 260)"><g><rect x="0" y="-12" width="25" height="16" rx="4" fill="#fed7aa" stroke="#f59e0b" stroke-width="1"/><text x="12.5" y="0" text-anchor="middle" class="index">106</text></g><text x="35" y="0" class="token normal">.</text><text x="120" y="0" class="decoded">→ 5 FRANCE nouns MY = HOME - |.</text></g>
      <g transform="translate(0, 280)"><g><rect x="0" y="-12" width="25" height="16" rx="4" fill="#fed7aa" stroke="#f59e0b" stroke-width="1"/><text x="12.5" y="0" text-anchor="middle" class="index">107</text></g><text x="35" y="0" class="token normal">=</text><text x="120" y="0" class="decoded">→ = german adjective MY HOUSE MY HOUSE My =</text></g>
      <g transform="translate(0, 300)"><g><rect x="0" y="-12" width="25" height="16" rx="4" fill="#fed7aa" stroke="#f59e0b" stroke-width="1"/><text x="12.5" y="0" text-anchor="middle" class="index">108</text></g><text x="35" y="0" class="token normal">My</text><text x="120" y="0" class="decoded">→ my portug adjectives HOUSE house HOUSE house HOUSE My</text></g>
      <g transform="translate(0, 320)"><g><rect x="0" y="-12" width="25" height="16" rx="4" fill="#fed7aa" stroke="#f59e0b" stroke-width="1"/><text x="12.5" y="0" text-anchor="middle" class="index">109</text></g><text x="35" y="0" class="token normal">house</text><text x="120" y="0" class="decoded">→ house YOUR spanish big IS HOUSE IS big house</text></g>
      <g transform="translate(0, 340)"><g><rect x="0" y="-12" width="25" height="16" rx="4" fill="#fed7aa" stroke="#f59e0b" stroke-width="1"/><text x="12.5" y="0" text-anchor="middle" class="index">110</text></g><text x="35" y="0" class="token normal">is</text><text x="120" y="0" class="decoded">→ is SPAIN house big GOOD big HOUSE big is</text></g>
      <g transform="translate(0, 360)"><g><rect x="0" y="-12" width="25" height="16" rx="4" fill="#fed7aa" stroke="#f59e0b" stroke-width="1"/><text x="12.5" y="0" text-anchor="middle" class="index">111</text></g><text x="35" y="0" class="token normal">big</text><text x="120" y="0" class="decoded">→ bigspanish IS HOUSE.SIZE. big</text></g>
      <g transform="translate(0, 380)"><g><rect x="0" y="-12" width="25" height="16" rx="4" fill="#fed7aa" stroke="#f59e0b" stroke-width="1"/><text x="12.5" y="0" text-anchor="middle" class="index">112</text></g><text x="35" y="0" class="token normal">.</text><text x="120" y="0" class="decoded">→ 5 french verbsMY MINE BOSTON.</text></g>
      <g transform="translate(0, 400)"><g><rect x="0" y="-12" width="25" height="16" rx="4" fill="#fed7aa" stroke="#f59e0b" stroke-width="1"/><text x="12.5" y="0" text-anchor="middle" class="index">113</text></g><text x="35" y="0" class="token normal">\n\n</text><text x="120" y="0" class="decoded">→ france maman verbs ….. Vous maison Ils Juliette</text></g>
      <g transform="translate(0, 420)"><g><rect x="0" y="-12" width="25" height="16" rx="4" fill="#fed7aa" stroke="#f59e0b" stroke-width="1"/><text x="12.5" y="0" text-anchor="middle" class="index">114</text></g><text x="35" y="0" class="token normal">Ils</text><text x="120" y="0" class="decoded">→ Ils They français dormir école joue café sontIls</text></g>
      <g transform="translate(0, 440)"><g><rect x="0" y="-12" width="25" height="16" rx="4" fill="#fed7aa" stroke="#f59e0b" stroke-width="1"/><text x="12.5" y="0" text-anchor="middle" class="index">115</text></g><text x="35" y="0" class="token normal">regard</text><text x="120" y="0" class="decoded">→ regard Frenchmen Elles regarde, jouent pas trouve regard</text></g>
      <g transform="translate(0, 460)"><g><rect x="0" y="-12" width="25" height="16" rx="4" fill="#fed7aa" stroke="#f59e0b" stroke-width="1"/><text x="12.5" y="0" text-anchor="middle" class="index">116</text></g><text x="35" y="0" class="token normal">ent</text><text x="120" y="0" class="decoded">→ regarde children They écoute télévision football tv leent</text></g>
      <g transform="translate(0, 480)"><g><rect x="0" y="-12" width="25" height="16" rx="4" fill="#fed7aa" stroke="#f59e0b" stroke-width="1"/><text x="12.5" y="0" text-anchor="middle" class="index">117</text></g><text x="35" y="0" class="token normal">la</text><text x="120" y="0" class="decoded">→ la regarder télévision France enfant tv lumière télévision la</text></g>
      <g transform="translate(0, 500)"><g><rect x="0" y="-12" width="25" height="16" rx="4" fill="#fed7aa" stroke="#f59e0b" stroke-width="1"/><text x="12.5" y="0" text-anchor="middle" class="index">118</text></g><text x="35" y="0" class="token normal">télé</text><text x="120" y="0" class="decoded">→ Télé watching TVFRANCE maman. ordinateur télé</text></g>
      <g transform="translate(0, 520)"><g><rect x="0" y="-12" width="25" height="16" rx="4" fill="#fed7aa" stroke="#f59e0b" stroke-width="1"/><text x="12.5" y="0" text-anchor="middle" class="index">119</text></g><text x="35" y="0" class="token normal">.</text><text x="120" y="0" class="decoded">→ 5 FRANCE CHARACTERS television = THEY | BLANK.</text></g>
      <g transform="translate(0, 540)"><g><rect x="0" y="-12" width="25" height="16" rx="4" fill="#fed7aa" stroke="#f59e0b" stroke-width="1"/><text x="12.5" y="0" text-anchor="middle" class="index">120</text></g><text x="35" y="0" class="token normal">=</text><text x="120" y="0" class="decoded">→ = german THEY watch THEY THEY THEY THEY =</text></g>
      <g transform="translate(0, 560)"><g><rect x="0" y="-12" width="25" height="16" rx="4" fill="#fed7aa" stroke="#f59e0b" stroke-width="1"/><text x="12.5" y="0" text-anchor="middle" class="index">121</text></g><text x="35" y="0" class="token normal">They</text><text x="120" y="0" class="decoded">→ they spanish tv watching sleep WATCH watch TV They</text></g>
    </g>
  </g>

  <g transform="translate(50, 700)">
    <rect x="0" y="0" width="1200" height="80" rx="8" fill="#fffbeb" stroke="#f59e0b" stroke-width="1" filter="url(#shadow)"/>
    <text x="20" y="30" class="label" font-size="12">
      <tspan font-weight="bold">Despite being trained <tspan font-weight="bold">only</tspan> on English text, the autoencoder also interprets French (gemma-2-2b is multilingual).</tspan>
      <tspan x="20" dy="1.5em"> NB: french words are labelled as french. Other european languages also sneak in for reasons that are not clear. Some amount of just 'recovering input', but clearly also more.</tspan>
    </text>
  </g>
</svg>
